# xmcd CD database file
#
# Track frame offsets:
#	182
#	29207
#	51982
#	62495
#	83057
#	101432
#	124782
#	145582
#	174570
#	202182
#	207882
#
# Disc length: 3266 seconds
#
# Revision: 2
# Processed by: cddbd v1.5.1PL0 Copyright (c) Steve Scherf et al.
# Submitted via: CDex 1.51
#
DISCID=9e0cc00b
DTITLE=Aldo Romano - Prosodie
DYEAR=1995
DGENRE=Jazz
TTITLE0=Silenzio
TTITLE1=Kadie B.
TTITLE2=Dida (poem)
TTITLE3=Folk Off
TTITLE4=Oracion
TTITLE5=La samba des prophètes
TTITLE6=A richman is a poor man with money
TTITLE7=On John's guitar
TTITLE8=Nat Eyes
TTITLE9=Il Silenzio (poem)
TTITLE10=Abstraction Lyrique
EXTD=Olivier Ker Ourio: harmonica\nPaolo Fresu: trompet, flugelhorn\nStefano Di Battista: alto and soprano saxophones\nFranco D'Andrea: piano\nJean-Michel Pilc: Fender Rhodes, electric piano, piano and whistle\nMichel Benita: bass\nFurio Di Castri: bass\
EXTD=nAldo Romano: drums YEAR: 1995
EXTT0=
EXTT1=
EXTT2=
EXTT3=
EXTT4=
EXTT5=
EXTT6=
EXTT7=
EXTT8=
EXTT9=
EXTT10=
PLAYORDER=
